<?xml version="1.0" standalone="no"?>
<!DOCTYPE svg PUBLIC "-//W3C//DTD SVG 20010904//EN"
 "http://www.w3.org/TR/2001/REC-SVG-20010904/DTD/svg10.dtd">
<svg version="1.0" xmlns="http://www.w3.org/2000/svg"
 width="242.000000pt" height="242.000000pt" viewBox="0 0 242.000000 242.000000"
 preserveAspectRatio="xMidYMid meet">
<metadata>
Created by potrace 1.11, written by Peter Selinger 2001-2013
</metadata>
<g transform="translate(0.000000,242.000000) scale(0.100000,-0.100000)"
fill="#000000" stroke="none">
<path d="M1100 2319 c-58 -33 -123 -71 -145 -84 -485 -277 -713 -411 -725
-424 -14 -15 -15 -91 -15 -589 0 -367 4 -574 10 -581 6 -5 201 -126 435 -269
234 -142 447 -273 474 -291 28 -17 58 -31 68 -31 10 0 150 77 311 171 161 94
383 223 494 287 111 65 204 123 208 131 3 8 5 266 5 575 0 520 -1 562 -18 577
-20 20 -976 589 -989 589 -4 0 -55 -27 -113 -61z"/>
</g>
</svg>
